<?xml version="1.0" encoding="UTF-8"?>
<svg version="1.1" viewBox="0 0 1560 1184" width="1280" height="1280" xmlns="http://www.w3.org/2000/svg">
<path transform="translate(909,130)" d="m0 0h11l13 2 5 3 3 5v248l6 2 17 9 10 9 6 10 3 9 1 12v150l-1 145h-9l-41-4-24-4-25-6-28-8-33-11-30-12-15-8-21-9-24-13-14-8-20-13-19-14-13-10-11-9-14-12-13-13-10-13-9-14 1-3 10 9 14 11 8 7 9 5 1-70v-11l2-15 3-12 6-12 9-12 6-7 14-11 27-14 28-13 19-10 23-12 17-9h2l-2 5-3 5-2 7v44l5 70 4 36 2 13 1 2 2-62 4-82 2-14 4-11 7-10 7-7 10-5 7-2h14l17 4 15 6-1-192-1-29h-12l-12 5-10 6-17 11-23 15-21 14-9 8-7 11-4 10-1 5v7l3-4 5-10 11-13 10-8 63-40 8-3 6 1 2 5-19 10-43 29-11 9-8 8-4 6-2 9-1 17-2 82-6 5-10 5-18 8h-2l-1-11-1-38v-65l1-16 4-12 7-11 11-12 8-6 12-7 22-14 20-12 19-12 16-9 13-4zm-195 298-10 4-12 8-12 12-7 10-7 16-4 13-1 6v14l2 1 4-2 10-24 14-24 12-15 9-11 3-4zm62 36-4 2h-5l-7 15-1 3-1 12v149l2 5 6 1 4-4 1-4v-139l2-13 7-9 7-7v-7l-4-4zm-62 27-8 4-7 6-5 10-1 66v32l4 6 2 1h6l1-4 1-87 2-7 5-6 8-7 1-7-4-6z" fill="#1F75A8"/>
<path transform="translate(595,682)" d="m0 0 8 4 9 6 31 15 31 12 37 11 40 10 30 6 15 2 52 10 43 6 60 6 32 3 1 2v16l-1 12-4 10-8 6-10 2-29 2-2 10-3 13-6 9-8 7-6 2-7 1h-28l-10-3-8-7-6-12-1-4-1-16-3-1h-37l-31 1 1 2v17l-4 11-7 8-5 3-5 1h-29l-9-4-7-8-3-7-1-6-1-16-32-3-8-3-5-4-5-10-2-20v-56l-25-15-12-9-11-9-8-8zm100 67-1 3v18l2 11 1 2h7l1-1v-31l-5-2zm67 18-1 4 2 5 4 1 2-3-1-6zm-18 55-8 1-2 4v14l3 9 5 5 5 3h11l6-4 5-6 2-7v-12l-2-6-14-1zm136 0-2 2v12l3 9 4 5 8 5 4 1h8l7-3 6-5 4-7 2-9v-8l-1-1-14-1z" fill="#1F75A7"/>
<path transform="translate(578,245)" d="m0 0h2l-2 5-11 13-10 15-10 17-7 11-12 23-7 20-5 19-4 26-1 14v22l3 24 5 22 9 26 8 16 7 13 15 22 10 13 11 12 9 10 12 11 14 11 18 14 18 12 17 10 21 12 26 12 24 10 30 11 46 15 44 12 28 7 56 13 72 12 19 4-2 2h-64l-52-4-37-4-38-5-41-7-35-8-36-12-39-15-30-14-20-11-26-16-16-12-14-12-8-7-10-9-8-7-12-13-9-11-10-13-11-18-14-27-10-26-6-25-3-18-1-10v-28l3-27 7-29 6-18 11-24 10-17 9-14 12-14 11-12 6-7 11-8z" fill="#085782"/>
<path transform="translate(1231,990)" d="m0 0h79l17 2 11 4 10 6 8 9 4 10 2 10v15l-3 12-6 11-7 7-7 5h-2l1 5 10 16 14 21v3h-38l-6-5-8-12-12-19v-2l-11-1h-27v38l-2 1h-33l-1-2v-133zm30 32v32l7 1h43l10-3 3-4 1-5v-11l-3-6-4-3-4-1z" fill="#085782"/>
<path transform="translate(368,990)" d="m0 0h71l18 1 16 4 11 6 8 8 5 11 2 8v21l-4 12-7 10-7 7-6 4 1 5 24 36v3h-37l-7-6-7-10-10-15-5-7-3-1-32 1-1 32-2 6h-33l-1-1-1-9v-123l1-2zm55 31-23 1-2 1 1 31 1 1h54l6-4 3-8v-13l-3-5-4-3-6-1z" fill="#075781"/>
<path transform="translate(1063,990)" d="m0 0h121l5 2-1 23-1 6-3 1h-88v21h84l1 1v19l-1 8h-84v23l91 1 1 1v29l-2 1-33 1h-49l-42-1-3-2-1-17v-114l1-2z" fill="#085882"/>
<path transform="translate(754,988)" d="m0 0 26 1 16 3 15 6 11 7 7 8 8 17 3 12 1 9v9l-2 17-5 15-6 10-7 8-10 7-11 5-14 4-21 3h-17l-19-3-16-6-12-8-8-8-6-12-4-13-1-6v-33l5-16 6-11 5-6 12-9 10-5 10-3 7-1zm-3 31-15 3-8 4-6 7-3 9-1 8v16l2 12 5 9 6 5 13 5 7 1h23l13-3 9-6 4-5 4-11 1-18-2-15-4-8-7-7-9-4-13-2z" fill="#075781"/>
<path transform="translate(182,990)" d="m0 0h21l2 2 1 79 2 11 4 6 9 5 12 3 19 1 14-2 11-4 5-5 4-8 1-9 1-76 2-2h32l2 2 2 12v32l-1 32-2 17-6 15-7 9-13 9-13 5-12 3-16 2h-25l-18-3-14-5-13-8-8-8-7-13-3-14-1-15v-30l1-40 2-2z" fill="#095882"/>
<path transform="translate(807,76)" d="m0 0 21 2 19 4 3 3 1 6-5 6-18 12-45 25-20 12-6 7 1 7 2 4v5l-9 6-6 2-3 9-11 21-6 3-5-1v-14l2-19 2-7-6 2-29 15-19 10-10 5-29 7-10 3-10 8-5-1-6-5-21-3-5-2v-4l8-5 1-6-4-3v-6l3-3 12 3 17 5 5-1 11-8 17-12 15-9 10-7h2v-2l-20-4-33-7-31-6-12-3 1-5 8-5h22l50 3 11 1 2 2 2 9 6-1 4-5h7l5 2-4-7-3-4v-8l4-6 5-2 6 3 4 10 1 7 4 1v-5l2 1 2 4 18 1 9 1 4 3h6l19-11 24-15 19-10 13-4 18-2 3-2-8-2-18-2-10 1h-12l-13 4-20 11-9 6-16 10-7 5-8 1 5-5 17-12 26-16 16-8 9-2zm-132 77-11 6-24 15-14 10-7 6-1 10 9-2 13-5 25-13 23-13 10-6 1-4-9-1-17 9-6 4 14-12 2-4z" fill="#075781"/>
<path transform="translate(875,990)" d="m0 0h23l13 1 1 53 8-1 9-6 14-12 11-9 12-11 14-11 4-3 16-1h13l16 1-5 5-14 12-13 10-13 11-11 9-12 11-8 7v2l8 7 14 12 15 14 11 9 12 11 11 9 5 6h-41l-7-3-14-12-12-11-8-7-11-9-12-10-6-3-6-1-2 53-2 2h-30l-2-1-1-7-1-126z" fill="#085882"/>
<path transform="translate(539,991)" d="m0 0h28l4 2 1 6 1 95 81 1 2 1v28l-3 2h-115l-3-1-1-25v-73l1-35z" fill="#0A5983"/>
<path transform="translate(807,76)" d="m0 0 21 2 19 4 3 3 1 6-5 6-18 12-45 25-20 12-6 7 1 7 2 4v5l-9 6-6 2-3 9-11 21-6 3-5-1v-14l2-19 2-7-6 2-29 15-19 10-10 5-29 7-10 3-10 8-5-1-6-5-21-3-5-2v-4l8-5 1-6-4-3v-6l3-3 12 3 17 5 5-1 11-8 17-12 15-9 10-7h2v-2l-20-4-18-4-1-2 11 1 5 2h8l10 1 7 1 1 1 10 2 1 2 12 2 3 3v2l3 1-2 3-2 2h-3l-1 3h-2v2l-4 2-1 2-16 8-13 7-1 2-5 1v2l-7 4-1 3 9-2 10-4 5-1v-2l18-8h2l1-3 3 1v-2h3v-2l5-1 1-3 10-2 7-5 12-5 10-5 15-6 5-6 4-1 1-3 10-5 18-10h3l1-5 5-1 11-7 9-3 3-3 4-2h3v-2l6-3h2v-5h-12l-6 3-10 2-3-1 3-3 13-4 18-2 3-2-8-2-18-2-10 1h-12l-13 4-20 11-9 6-16 10-7 5-8 1 5-5 17-12 26-16 16-8 9-2zm-132 77-11 6-24 15-14 10-7 6-1 10 9-2 13-5 25-13 23-13 10-6 1-4-9-1-17 9-6 4 14-12 2-4z" fill="#2B678C"/>
<path transform="translate(632,140)" d="m0 0 11 1 5 2h8l10 1 7 1 1 1 10 2 1 2 12 2 3 3v2l3 1-2 3-2 2h-3l-1 3h-2v2l-4 2-1 2-9 1-5 4-7 2v2l-13 8-5 2-12 7h-3l-2 2-9 2v2l-5 1-6-1h-32l2 3 7 3-4 1-10-2-2-4 9-6 1-6-4-3v-6l3-3 12 3 17 5 5-1 11-8 17-12 15-9 10-7h2v-2l-20-4-18-4zm43 13-11 6-24 15-14 10-7 6-1 10 9-2 13-5 25-13 23-13 10-6 1-4-9-1-17 9-6 4 14-12 2-4z" fill="#277AAB"/>
<path transform="translate(751,158)" d="m0 0h4l1 2h2l2 4v5l-9 6-6 2-3 9-11 21-6 3-5-1v-14h3v-12l3-9 9-5 5-5h2v-2z" fill="#075781"/>
<path transform="translate(807,76)" d="m0 0 21 2 19 4 3 3 1 6-5 6h-1l-1-5-15 1-6 3-10 2-3-1 3-3 13-4 18-2 3-2-8-2-18-2-10 1h-12l-13 4-20 11-9 6-16 10-7 5-8 1 5-5 17-12 26-16 16-8 9-2z" fill="#3582AF"/>
<path transform="translate(578,245)" d="m0 0h2l-2 5-11 13-10 15-10 17-7 11-11 21-1-3 5-12 6-12h2l-1-3 3-2v-2l-2-1 3-5h2l1-3h2l-1-4-3 1-1 2v-2h-2v2l-3 3-2 6-5 4-3 1-7 12-4 5-3 6-5 5 2-6 15-24 12-14 11-12 6-7 11-8z" fill="#296990"/>
<path transform="translate(838,91)" d="m0 0h6l1 1v5l-9 7-15 9-47 26-11 7-6 7v7l-2 1-2-2-6 2-5 1v2l-5 3-3 4-8 4-2 8v9l-1 3h-2l1-19 2-7-8 2 3-3 19-10h3l1-3 10-5 4-1 5-6 4-1 1-3 10-5 18-10h3l1-5 5-1 11-7 9-3 3-3 4-2h3v-2l6-3h2v-5z" fill="#2B698E"/>
<path transform="translate(693,104)" d="m0 0 6 2 2 1 4 10 1 7 4 1v-5l2 1 2 4 18 1 9 1 1 2h-28l-5-1-7 2-1 2-8 3-11-1v2l-4 2-5-1 1-2 3-1 4-5h7l5 2-4-7-3-4v-8l4-6z" fill="#2C678B"/>
<path transform="translate(632,140)" d="m0 0 11 1 5 2h8l10 1 7 1 1 1 10 2 1 2 12 2 3 3v2l3 1-2 3-2 2h-3l-1 3h-2v2l-4 2-1 2-5 1-4-2 18-10 2-4h-9l-17 9-5 4-2-1 15-13 2-4-7-1-25-5-18-4z" fill="#2B688D"/>
<path transform="translate(582,181)" d="m0 0 12 3 17 5v2l4 1-1 4-2 1-19-1-5-3-6-3-3-3 1-5z" fill="#2B678C"/>
<path transform="translate(753,168)" d="m0 0 5 2-5 4-8 3-3 9-11 21-6 3-5-1v-14l3 1v2h-2v2l4-1 3 1 1-2h2l5-11v-5l4-8 4-2h5z" fill="#29698F"/>
<path transform="translate(584,120)" d="m0 0h22l50 3v1h-23l-43-1-7 2 5 5 13 3 6 2 11 1 5 2v1l-11-1-34-7-3-1 1-5z" fill="#266C96"/>
<path transform="translate(806,98)" d="m0 0h2l-1 3-3 3-6 2v2l-6 2-1 2-3 2-4 3-3 2h-4v2l-6 3-10 6-12 3-1 2v-2l-3-1v-1l8-2 17-10 24-15z" fill="#2A688E"/>
<path transform="translate(700,428)" d="m0 0h5l-4 3-3 3h-3v5l-8 7-4 2-4-1v3h-2l-2 5-5 2 4-8 5-6 14-11z" fill="#276A93"/>
<path transform="translate(669,149)" d="m0 0 10 2 4 2-10 2-16 9-24 16v-3l8-7 18-11 10-7h2v-2z" fill="#3280AF"/>
<path transform="translate(592,643)" d="m0 0 5 1 1 3h2v2l5 2 2 1v2l6 2 14 8 5 4 10 5 3 4 3 1v2l-5-2-22-13-15-10-10-8z" fill="#28698F"/>
<path transform="translate(362,991)" d="m0 0 4 1-3 4v91l-1 29h-1v-123z" fill="#2073A4"/>
<path transform="translate(538,282)" d="m0 0 1 4-2 6-5 4-3 1-7 12-4 5-3 6-5 5 2-6 15-24z" fill="#236F9D"/>
<path transform="translate(741,157)" d="m0 0 4 1-5 5-12 8-4 2-1 2 1-6-8 2 3-3 19-10z" fill="#2076A8"/>
<path transform="translate(1059,991)" d="m0 0 3 1-2 6-1 109h-1v-114z" fill="#1F74A6"/>
<path transform="translate(838,91)" d="m0 0h6l1 1v5l-9 7-10 6-8 3-5 2-3-1 7-4 7-3 6-4h3v-2l6-3h2v-5z" fill="#2A688D"/>
<path transform="translate(1e3 751)" d="m0 0 1 2 19-1 9 2-2 2h-39v-1h10v-2h2z" fill="#2B678C"/>
<path transform="translate(693,104)" d="m0 0 6 2 2 1 4 10 1 8-5-1-1-10-3-6-4-1-3 2-3 11h-1v-8l4-6z" fill="#2476A7"/>
<path transform="translate(742,160)" d="m0 0m-1 1 1 3-5 3-3 4-8 4-2 8v9l-1 3h-2l1-19 5-5 11-8z" fill="#2C678B"/>
<path transform="translate(687,121)" d="m0 0 4 2 1 3h3v2h2l-1 4-3 1-13 1-5 4-2-2 4-2 4-5h7l5 2-4-7z" fill="#317EAC"/>
<path transform="translate(710,120)" d="m0 0 2 1 2 4 18 1 9 1 1 2h-28l-3-2-5-1 4-1z" fill="#3078A3"/>
<path transform="translate(754,988)" d="m0 0 26 1 1 2h-51v-1l7-1z" fill="#286A92"/>
<path transform="translate(683,153)" d="m0 0 12 2v1l-9 3-16 9-4 2 5-5 11-10z" fill="#5898BE"/>
<path transform="translate(689,183)" d="m0 0 4 1-25 13-11 5-7 1 1-2 6-2 4-2h4v-2l5-2h3v-2z" fill="#1F75A8"/>
<path transform="translate(692,109)" d="m0 0 2 6h3v6l-3 1-7-1v-6l3-5z" fill="#085781"/>
<path transform="translate(822,110)" d="m0 0 3 1-17 9-5 3h-6l2-4 5-2 3-2 9-2z" fill="#2A688D"/>
<path transform="translate(677,172)" d="m0 0 2 1-5 4-7 2v2l-13 8-4-1 3-3 12-6z" fill="#3381B0"/>
<path transform="translate(524,300)" d="m0 0h2l-1 4-7 10-3 6-5 5 2-6z" fill="#276B94"/>
<path transform="translate(592,643)" d="m0 0 5 1 1 3h2v2l5 2 2 1v2l6 2 4 3-1 3-14-10-10-8z" fill="#286A92"/>
<path transform="translate(759,109)" d="m0 0v3l-4 3h-2l-2 4-4 2-2 4-3 2 2-5 1-4z" fill="#97BFD6"/>
<path transform="translate(818,92)" d="m0 0h11l-5 4-5 1-8 1v-3z" fill="#2D6C92"/>
<path transform="translate(683,441)" d="m0 0 3 1-1 6-6-1v3h-2l-2 5-5 2 3-6h3l1-4z" fill="#29668B"/>
<path transform="translate(797,123)" d="m0 0 4 1-18 10-3 1 2-4 12-7z" fill="#276B93"/>
<path transform="translate(963,1067)" d="m0 0 14 12-1 2-7-3v-2l-3-1v-4h-2v-2l-2-1z" fill="#28688F"/>
<path transform="translate(199,1120)" d="m0 0h7l5 3 7 1 3 3-8-1-14-5z" fill="#286A93"/>
<path transform="translate(690,165)" d="m0 0h3v3l-4 2-1 2-5 1-4-2z" fill="#30739B"/>
<path transform="translate(763,123)" d="m0 0 2 1-9 7-7 2-1 2v-2l-3-1v-1l8-2z" fill="#2874A1"/>
<path transform="translate(724,175)" d="m0 0 1 4-1 10-1 6h-2l1-19z" fill="#296990"/>
<path transform="translate(822,110)" d="m0 0 3 1-17 9-3 1v-2l5-2v-2z" fill="#1F75A8"/>
<path transform="translate(1026,753)" d="m0 0 7 1-2 2h-24v-1l17-1z" fill="#2578A9"/>
<path transform="translate(595,682)" d="m0 0 8 4 1 3-2 3-7-8z" fill="#4C8AAF"/>
<path transform="translate(538,284)" d="m0 0 1 4-2 4-5 4-2-2 3-4h2l2-5z" fill="#236388"/>
<path transform="translate(998,1099)" d="m0 0 4 2 9 8-3 1-6-4v-2l-4-3z" fill="#296990"/>
<path transform="translate(773,831)" d="m0 0 2 1v12l-2 1-2-2z" fill="#195F86"/>
<path transform="translate(580,122)" d="m0 0 1 4-1 5-5-1 1-5z" fill="#2C7DAD"/>
<path transform="translate(592,184)" d="m0 0 16 4-4 2-11-3z" fill="#1F75A8"/>
<path transform="translate(632,140)" d="m0 0 11 1 6 3-2 1-14-3z" fill="#276B94"/>
<path transform="translate(826,105)" d="m0 0m-1 1m-1 1m-1 1m-4 1 4 1-10 5-3-1 7-4z" fill="#2C678B"/>
<path transform="translate(984,991)" d="m0 0h5l-1 3-3 2h-6z" fill="#1D628A"/>
<path transform="translate(1e3 751)" d="m0 0 1 2h3l-1 3h-15v-1h10v-2h2z" fill="#286589"/>
<path transform="translate(612,214)" d="m0 0 3 2-4 3-5-1-2-3h6z" fill="#1F75A8"/>
<path transform="translate(700,428)" d="m0 0h5l-4 3-3 3-4 1-1-3z" fill="#1E658E"/>
<path transform="translate(699,157)" d="m0 0 4 1-2 3-2 2h-3l-1 3-3-1 5-4z" fill="#276C95"/>
<path transform="translate(710,120)" d="m0 0 2 1 2 4 5 1v1h-8l-5-1 4-1z" fill="#5093BB"/>
<path transform="translate(1022,1119)" d="m0 0 7 6v1h-10l2-2 3-1z" fill="#266C97"/>
<path transform="translate(724,120)" d="m0 0 2 1z" fill="#FEFEFE"/>
<path transform="translate(665,170)" d="m0 0" fill="#FEFEFE"/>
<path transform="translate(723,121)" d="m0 0" fill="#FEFEFE"/>
</svg>
