<svg width="34" height="40" viewBox="0 0 34 40" fill="none" xmlns="http://www.w3.org/2000/svg">
<path d="M15.3306 37.47C16.1211 38.668 17.8789 38.668 18.6694 37.47L21.8818 32.6015C22.7591 31.2718 21.8055 29.5 20.2124 29.5H13.7876C12.1945 29.5 11.2409 31.2718 12.1182 32.6015L15.3306 37.47Z" fill="#1A7969"/>
<circle cx="17" cy="17" r="16.5" fill="white" stroke="#1A7969"/>
<circle cx="17" cy="17" r="15" fill="white"/>
<path d="M19.4423 6.29936H19.6346L19.9231 6.33911L20.0769 6.43846L20.1346 6.61731V11.4462L20.25 11.4859L20.5962 11.6846L20.6923 11.7641L20.8077 11.9231L20.8846 12.0821L20.9231 12.2013L20.9423 12.7776V18.2224L20.9231 18.3417L20.8077 18.3615L19.9615 18.2622L19.5 18.1827L18.8654 18.0237L18.0962 17.7853L17.7115 17.6462L17.1731 17.4276L16.8654 17.2686L16.4231 17.05L15.9808 16.7917L15.7115 16.6327L15.4038 16.4141L15.0385 16.1359L14.7692 15.9173L14.5192 15.6987L14.0577 15.2218L13.8462 14.9436L13.7115 14.7051V14.6654L13.8077 14.7051L14.0192 14.884L14.2692 15.0827L14.4038 15.2019L14.5385 15.2615V13.6321L14.5962 13.2744L14.6923 13.0359L14.8077 12.8173L14.9808 12.5987L15.0577 12.4994L15.3846 12.2609L15.8269 12.0423L16.1346 11.8833L16.6154 11.6449L16.9231 11.466L17.2308 11.3071L17.3654 11.2276L17.5385 11.168H17.5769L17.5577 11.2474L17.4615 11.4859L17.4423 11.5455V11.9827L17.4615 12.559L17.5192 13.334L17.5577 13.9301L17.6346 14.6654V14.7449H17.6731V14.0891L17.7115 12.5391L17.75 11.9032L17.7885 11.6449L17.8654 11.4064L18.0385 11.168L18.25 11.009L18.4038 10.9494L18.5192 10.9295H18.75L19.0577 11.009L19.3462 11.1083V10.4327L19.3269 6.91539L19.3077 6.77629H19.1346L18.9038 6.85577L18.6154 7.03462L18.2692 7.27308L17.9615 7.4718L17.6731 7.67052L17.3846 7.88911L17.1923 8.18718L17.1346 8.34616L17.1154 8.44552V8.64423L17.1923 8.36603L17.3654 8.12757L17.4615 8.02821L17.6538 7.86923L18.0769 7.59103L18.4038 7.37244L18.7692 7.13398L18.9231 7.05449L19.0385 7.01475L19.1346 7.03462L19.1731 7.11411L19.1538 7.21346L18.9231 7.31282L18.6154 7.53141L18.2308 7.78975L18.0192 7.92885L17.7692 8.12757L17.6346 8.28654L17.5385 8.46539L17.5192 8.56475L17.4808 10.3731L17.4615 10.5321L17.3269 10.6513L17.0962 10.7705L16.7885 10.9096H16.7308L16.7115 10.8301L16.6923 9.81667V8.62436L16.7115 8.32629L16.7885 8.06795L16.9038 7.86923L17.0577 7.67052L17.2115 7.53141L17.4038 7.41218L17.75 7.19359L18.0192 7.01475L18.3462 6.81603L18.8077 6.51795L19.0769 6.37885L19.2885 6.31923L19.4423 6.29936Z" fill="#1A7969"/>
<path d="M13.4423 17.3083L13.5385 17.3282L13.8462 17.5071L14.2115 17.6859L14.7308 17.9045L15.0577 18.0237L15.5769 18.1827L16.5769 18.441L17.0769 18.5404L17.5192 18.6199L18.2308 18.759L19.0385 18.8782L19.9231 18.9776L20.8269 19.0571L20.9038 19.0769L20.9423 19.2359V19.5936L20.8846 19.8321L20.75 19.991L20.5962 20.0705L20.1923 20.1103L19.9231 20.1301L19.8846 20.4481L19.8077 20.6269L19.6923 20.7859L19.5385 20.9051L19.4038 20.9449L19.0962 20.9648L18.7692 20.9449L18.5769 20.8853L18.4231 20.766L18.2692 20.4481L18.25 20.1103H16.9423V20.4083L16.9038 20.6071L16.8077 20.766L16.6538 20.9051L16.4615 20.9648H16.25L15.9423 20.9449L15.75 20.8455L15.6154 20.6667L15.5577 20.4878V20.1301L15.0192 20.0904L14.8462 20.0506L14.7308 19.9712L14.6346 19.8519L14.5577 19.6333L14.5385 18.2224L14.4808 18.1628L14.0962 17.9442L13.8077 17.7256L13.6154 17.5468L13.4615 17.3878L13.4423 17.3083Z" fill="#1A7969"/>
<path d="M13.0962 8.62437H13.1731L13.1346 8.72373L12.9038 9.00193L12.7115 9.30001L12.5192 9.61796L12.3654 9.87629L12.2115 10.1942L12.0769 10.5519L11.9808 10.8898L11.9038 11.2872L11.8654 11.5853L11.8462 11.8436L11.8654 12.4398L11.9423 12.9167L12.0385 13.2942L12.1923 13.7513L12.3846 14.1487L12.8077 14.8045L12.9808 15.0231L13.3269 15.4205L13.5385 15.5994L13.7308 15.7782L13.9808 15.9769L14.3654 16.2551L14.7115 16.4737L15.2308 16.7718L15.8462 17.0699L16.3846 17.2885L17.0577 17.5468L17.8462 17.8051L18.5 17.984L19.0385 18.1231L19.8077 18.3019L20.3654 18.4212L21.2885 18.5801L21.6346 18.6596L21.8846 18.7192L21.8654 18.759L21.3846 18.7987H20.75L19.8462 18.7391L18.9231 18.6398L17.9808 18.5006L17.2308 18.3615L16.6154 18.2026L16.0385 18.0039L15.3654 17.7455L14.9808 17.5667L14.6731 17.4077L14.3077 17.209L13.9038 16.9506L13.5577 16.7122L13.3077 16.4936L13.0385 16.2551L12.8077 16.0365L12.5577 15.7782L12.3846 15.5596L12.1731 15.3013L11.9808 15.0032L11.8654 14.8045L11.75 14.5859L11.5769 14.2083L11.4423 13.8308L11.3269 13.3539L11.25 12.9167L11.2308 12.7378V12.1814L11.2885 11.6648L11.4038 11.1282L11.5577 10.6513L11.75 10.2141L11.9615 9.85642L12.1346 9.57821L12.3462 9.31988L12.5577 9.08142L12.6923 8.92244L12.9038 8.76347L13.0962 8.62437Z" fill="#1A7969"/>
<path d="M16.2308 23.3494H16.9038L17.2115 23.3891L17.4808 23.4885L17.75 23.6276L17.9231 23.7865L18.0769 24.0846L18.1538 24.3032L18.1923 24.5218V24.9788L18.1154 25.3167L18.0385 25.4955L17.9423 25.6545L17.8077 25.8135L17.6154 25.9526L17.3077 26.0917L16.9615 26.1712L16.8269 26.191H16.3269L15.9423 26.1115L15.6346 25.9724L15.4231 25.8135L15.2692 25.6346L15.1538 25.3365L15.0962 25.0782V24.4026L15.1923 24.0647L15.3077 23.8462L15.4038 23.7269L15.6731 23.5282L15.8846 23.4288L16.0962 23.3692L16.2308 23.3494Z" fill="#1A7969"/>
<path d="M25.6731 23.3891H27.3077L27.5962 23.4487L27.8269 23.5481L28.0192 23.7071L28.1538 23.9455L28.2115 24.1442L28.2308 24.4026L28.1923 24.6609L28.0962 24.8994L27.9808 25.0583L27.7885 25.2173L27.7308 25.2571L27.7692 25.3564L28.0192 25.734L28.2308 26.0718V26.1115L28.0577 26.1513H27.5L27.3846 26.0718L27.2115 25.8532L27.0769 25.6346L26.9423 25.3962V25.3564L26.25 25.3763V26.1115L26.2308 26.1314H25.5962L25.5385 26.1115L25.5192 26.0519V23.5481L25.5385 23.4289L25.6731 23.3891Z" fill="#1A7969"/>
<path d="M9.07692 23.3891H10.6731L11 23.4487L11.2692 23.568L11.4615 23.7468L11.5769 23.9853L11.6346 24.2833L11.6154 24.6013L11.5577 24.8L11.4423 24.9987L11.3654 25.0981L11.1538 25.2571L11.1923 25.3564L11.4615 25.7737L11.5962 25.9923L11.6154 26.1115L11.5769 26.1314L11.3654 26.1513H11.1538L10.9423 26.1314L10.8077 26.0519L10.6346 25.8333L10.4038 25.4756L10.3462 25.3763H9.71154L9.67308 26.0122L9.63462 26.1314H9L8.94231 26.0917L8.92308 25.3962V23.6276L8.94231 23.4487L8.98077 23.409L9.07692 23.3891Z" fill="#1A7969"/>
<path d="M22.4615 23.3891H24.8269L24.8846 23.4289V23.7071L24.8462 24.0449L24.8269 24.0647L23.1154 24.1045V24.4224L24.7115 24.4423L24.7308 24.4622V25.0385L23.0962 25.0583L23.1154 25.4359L23.2692 25.4558H24.5385L24.8462 25.4756L24.8654 25.4955V26.1115L24.7692 26.1513H23L22.4423 26.1314L22.3654 26.0917L22.3462 26.0321L22.3269 25.6147V23.5481L22.3654 23.409L22.4615 23.3891Z" fill="#1A7969"/>
<path d="M17.4231 5.24615H17.7885L18.25 5.34551L18.3654 5.40513L18.3846 5.5641L18.2885 5.68333L18 5.88205L17.5385 6.14039L17.25 6.31923L16.7885 6.57756L16.6154 6.71667L16.5769 6.79615L16.5962 6.93526L16.6346 6.99487V7.09423L16.5577 7.19359L16.3654 7.27308L16.2885 7.45192L16.0962 7.84936L16.0385 7.90898H15.8269V7.67051L15.8654 7.13398L15.5577 7.29295L14.9615 7.6109L14.7115 7.75L14.1346 7.8891L13.9423 7.92885L13.8269 8.08782H13.6154L13.5577 7.96859H13.3462L13.0577 7.90898L13 7.84936V7.78974L13.2115 7.67051V7.59103L13.1154 7.49167L13.0962 7.41218L13.1538 7.33269H13.3269L13.6731 7.45192L13.8077 7.4718L14.2115 7.19359L14.5385 6.975L14.75 6.8359L14.8269 6.79615V6.73654L14.2115 6.59744L13.3077 6.39872L13.0577 6.3391L13.0385 6.27949L13.1154 6.18013L13.25 6.10064H13.7115L14.7308 6.16026L14.8462 6.2L14.8846 6.23974L14.9038 6.39872H15L15.0962 6.27949L15.2885 6.29936V6.27949L15.1731 6.12051V5.96154L15.25 5.84231L15.3077 5.80257H15.4231L15.5 5.88205L15.5769 6.08077V6.16026L15.6346 6.14039L15.7308 6.18013L16.3269 6.23974V6.29936L16.4615 6.27949L16.9615 5.98141L17.25 5.78269L17.4231 5.70321L17.6538 5.5641L17.9231 5.50449L18.2115 5.48462L18.2692 5.425L18.1346 5.40513H17.6154V5.44487H17.4615V5.40513L17.25 5.44487L17.0192 5.54423L16.6731 5.74295L16.3846 5.9218L16.2308 6.00128L16.2115 6.0609L16.3846 6.02115L16.4423 5.98141L16.5577 5.96154L16.5192 6.04103L16.4231 6.08077L16.3846 6.16026L16.3077 6.14039L16.1731 6.12051H16.0385L15.9615 6.08077L16.2115 5.88205L16.5769 5.64359L16.8654 5.46474L17.1731 5.30577L17.2308 5.26603L17.3462 5.2859L17.4231 5.24615Z" fill="#1A7969"/>
<path d="M5.40385 23.3891H5.90385L5.94231 23.4289L5.96154 23.5282L5.98077 24.9987L6.01923 25.1776L6.11538 25.3365L6.26923 25.4359L6.5 25.4955L6.69231 25.5154L7.09615 25.4756L7.32692 25.3962L7.42308 25.2769L7.5 25.0782L7.51923 23.5878L7.53846 23.4289L7.76923 23.3891H8.09615L8.21154 23.4686L8.26923 23.5878L8.28846 23.6872V24.8L8.26923 25.118L8.21154 25.3962L8.09615 25.6744L8 25.7737L7.78846 25.9526L7.55769 26.0718L7.26923 26.1513L7.01923 26.191H6.42308L6.01923 26.1115L5.78846 26.0122L5.57692 25.8731L5.42308 25.7141L5.30769 25.5154L5.23077 25.2571L5.21154 25.0782V23.6474L5.23077 23.4487L5.40385 23.3891Z" fill="#1A7969"/>
<path d="M18.8846 23.3891H19.4423L19.5192 23.409L19.5385 23.4487L19.5577 24.3628L19.5962 24.4423L19.7115 24.4224L19.9231 24.2635L20.1923 24.025L20.3462 23.8859L20.5962 23.6673L20.8462 23.4686L20.9615 23.3891H21.6538L21.7885 23.4289L21.7692 23.5083L21.6154 23.6474L21.2885 23.9058L21.0192 24.1244L20.7692 24.343L20.4423 24.6609L20.3846 24.7205L20.4038 24.8L20.5962 24.9789L20.75 25.118L20.9423 25.2769V25.3167L21.0192 25.3564L21.2692 25.5949L21.4808 25.7737L21.7692 26.0519L21.8077 26.1115L21.7885 26.1314H21L20.7885 26.0122L20.5 25.7539L20.2692 25.5353L20.0577 25.3564L19.7885 25.118L19.6923 25.0583L19.5769 25.0385L19.5577 25.0981L19.5385 25.9327L19.5 26.0917L19.4423 26.1314H19.0769L18.8462 26.1115L18.8077 26.0519L18.7885 23.568L18.8077 23.4289L18.8846 23.3891Z" fill="#1A7969"/>
<path d="M12.4615 23.3891H12.8462L12.9615 23.4289L13.0192 23.6077L13.0385 25.4558H14.3269L14.6346 25.4756L14.6538 25.5551V25.9327L14.6154 26.1115L14.5962 26.1314L14.4038 26.1513H12.9423L12.3654 26.1314L12.2692 26.1115L12.25 25.734V23.9853L12.2692 23.5083L12.3077 23.4289L12.4615 23.3891Z" fill="#1A7969"/>
<path d="M16.3654 24.025H16.9231L17.1731 24.1045L17.3269 24.2436L17.4231 24.4026L17.4615 24.6212V24.8994L17.4038 25.1776L17.2885 25.3564L17.1154 25.4756L16.9615 25.5154L16.7115 25.5353H16.4808L16.1538 25.4558L16 25.3564L15.9231 25.2769L15.8462 25.0385L15.8269 24.8596V24.641L15.8654 24.3628L15.9615 24.2038L16.1346 24.0846L16.3654 24.025Z" fill="#FDFDFD"/>
<path d="M16.9615 12.9763L17.0577 12.9962L17.1346 13.0756L17.1154 13.175L16.8846 13.3936L16.8269 13.5128L16.8077 13.8308V16.5333L16.7692 16.6327L16.6346 16.6128L16.5962 16.5532V13.632L16.6346 13.3141L16.7308 13.1154L16.8269 13.0359L16.9615 12.9763Z" fill="#FDFDFD"/>
<path d="M9.75 24.0648H10.7115L10.8077 24.1045L10.8846 24.2039V24.5019L10.8269 24.6013L10.7115 24.6808H9.73077L9.69231 24.6609L9.67308 24.4026V24.1641L9.69231 24.0846L9.75 24.0648Z" fill="#FDFDFD"/>
<path d="M26.3654 24.0648H27.1923L27.3462 24.1045L27.4423 24.2039L27.4615 24.2436V24.4821L27.4038 24.6013L27.3077 24.6609L27.1923 24.6808H26.3462L26.2692 24.641V24.0846L26.3654 24.0648Z" fill="#FDFDFD"/>
<path d="M15.7115 13.5327L15.8269 13.5526L15.8846 13.6122L15.8654 13.7513L15.6346 13.9699L15.5769 14.1289L15.5577 15.9372L15.5 15.9769L15.3846 15.8974L15.3462 15.7583L15.3654 13.9103L15.4423 13.7513L15.5769 13.6122L15.7115 13.5327Z" fill="#FDFDFD"/>
<path d="M18.9231 20.1103H19.7115L19.75 20.1699V20.309L19.6731 20.5276L19.5769 20.6468L19.4231 20.7263H19.2308L19.0769 20.6468L18.9615 20.5077L18.9038 20.309V20.15L18.9231 20.1103Z" fill="#FDFDFD"/>
<path d="M14.9231 6.79616H15.0769V6.85577L15 6.95513L15.25 6.87565L15.2885 6.85577H15.4038V6.93526L15.0769 7.13398L14.7308 7.3327L14.4231 7.49167L14.1346 7.63077L14 7.67052H13.9038V7.53141L13.9615 7.4718H14V7.43206L14.25 7.25321L14.5769 7.03462L14.7692 6.89552L14.9231 6.79616Z" fill="#FDFDFD"/>
<path d="M16.1731 20.1103H16.75L16.7885 20.1301L16.8077 20.2096V20.4878L16.7308 20.6468L16.6346 20.7462L16.5192 20.7859L16.3654 20.766L16.25 20.6865L16.1731 20.5673L16.1346 20.4481V20.1699L16.1731 20.1103Z" fill="#FDFDFD"/>
<path d="M15.6346 12.2808H15.75L15.7115 12.3603L15.5577 12.5192L15.3462 12.7974L15.1731 13.0756L14.9423 13.5327L14.8269 13.8308L14.7885 13.9103H14.75V13.5724L14.8269 13.2744L14.9615 12.9564L15.1154 12.7378L15.3269 12.4994L15.5385 12.3404L15.6346 12.2808Z" fill="#FDFDFD"/>
<path d="M15.4038 18.6596H15.5192L15.5577 18.7391V19.2359L15.5 19.2955L15.4231 19.2756L15.4038 19.2558L15.3654 18.9974V18.6994L15.4038 18.6596Z" fill="#FDFDFD"/>
<path d="M16.6731 18.9974H16.75L16.7692 19.1365L16.6923 19.1564L16.6538 19.1167V19.0173L16.6731 18.9974Z" fill="#FDFDFD"/>
<path d="M16.178 36.8136C16.5757 37.3876 17.4243 37.3876 17.822 36.8136L21.1088 32.0695C21.5683 31.4063 21.0936 30.5 20.2868 30.5H13.7132C12.9064 30.5 12.4317 31.4063 12.8912 32.0695L16.178 36.8136Z" fill="white"/>
</svg>
