<?xml version="1.0" encoding="UTF-8"?>
<svg id="Layer_2" data-name="Layer 2" xmlns="http://www.w3.org/2000/svg" viewBox="0 0 269 290.4">
  <defs>
    <style>
      .cls-1 {
        fill: #fff;
      }

      .cls-2 {
        fill: #00aa94;
      }

      .cls-3 {
        fill: #666;
      }
    </style>
  </defs>
  <g id="mylocation">
    <g>
      <path class="cls-1" d="m134.79,289.9c-.39,0-.75-.15-1.02-.42l-22.75-22.75s-.09-.1-.13-.16l-.12-.16-.2-.04C46.79,254.87.5,199.41.5,134.5.5,60.61,60.61.5,134.5.5s134,60.11,134,134c0,64.57-46.01,119.97-109.4,131.74l-.22.04-.12.19c-.07.11-.13.19-.2.26l-22.75,22.75c-.27.27-.64.42-1.02.42Z"/>
      <path class="cls-3" d="m134.5,1c35.66,0,69.18,13.89,94.4,39.1,25.21,25.21,39.1,58.74,39.1,94.4,0,64.33-45.84,119.53-108.99,131.25l-.43.08-.23.37c-.05.07-.09.13-.13.17l-22.75,22.75c-.18.18-.42.28-.67.28s-.49-.1-.67-.28l-22.75-22.75s-.05-.06-.09-.11l-.24-.32-.39-.07c-30.4-5.48-58.17-21.57-78.22-45.3C12.17,196.55,1,165.98,1,134.5c0-35.66,13.89-69.18,39.1-94.4C65.32,14.89,98.84,1,134.5,1m0-1C60.22,0,0,60.22,0,134.5c0,66.09,47.66,121.04,110.49,132.36.06.08.11.15.18.22l22.75,22.75c.38.38.88.57,1.38.57s1-.19,1.38-.57l22.75-22.75c.11-.11.2-.23.27-.35,62.49-11.6,109.81-66.38,109.81-132.23C269,60.22,208.78,0,134.5,0h0Z"/>
    </g>
    <path class="cls-2" d="m256,133.5c0-67.1-54.4-121.5-121.5-121.5S13,66.4,13,133.5c0,59.7,43.06,109.34,99.81,119.57.05.07.1.14.16.2l20.55,20.55c.69.69,1.8.69,2.48,0l20.55-20.55c.1-.1.18-.21.25-.32,56.45-10.48,99.19-59.97,99.19-119.45Z"/>
  </g>
</svg>