<?xml version="1.0" encoding="UTF-8"?>
<svg xmlns="http://www.w3.org/2000/svg" xmlns:xlink="http://www.w3.org/1999/xlink" width="60px" height="60px" viewBox="0 0 60 60" version="1.1">
<g id="surface1">
<path style=" stroke:none;fill-rule:nonzero;fill:rgb(99.215686%,99.215686%,99.215686%);fill-opacity:1;" d="M 0 7.230469 L 60 7.230469 L 60 52.769531 L 0 52.769531 Z M 0 7.230469 "/>
<path style=" stroke:none;fill-rule:nonzero;fill:rgb(10.196078%,47.45098%,41.176471%);fill-opacity:1;" d="M 34.882812 12.191406 L 35.269531 12.191406 L 35.847656 12.269531 L 36.152344 12.460938 L 36.269531 12.808594 L 36.269531 22.152344 L 36.5 22.230469 L 37.191406 22.617188 L 37.382812 22.769531 L 37.617188 23.078125 L 37.769531 23.382812 L 37.847656 23.617188 L 37.882812 24.730469 L 37.882812 35.269531 L 37.847656 35.5 L 37.617188 35.539062 L 35.921875 35.347656 L 35 35.191406 L 33.730469 34.882812 L 32.191406 34.421875 L 31.421875 34.152344 L 30.347656 33.730469 L 29.730469 33.421875 L 28.847656 33 L 27.960938 32.5 L 27.421875 32.191406 L 26.808594 31.769531 L 26.078125 31.230469 L 25.539062 30.808594 L 25.039062 30.382812 L 24.117188 29.460938 L 23.691406 28.921875 L 23.421875 28.460938 L 23.421875 28.382812 L 23.617188 28.460938 L 24.039062 28.808594 L 24.539062 29.191406 L 24.808594 29.421875 L 25.078125 29.539062 L 25.078125 26.382812 L 25.191406 25.691406 L 25.382812 25.230469 L 25.617188 24.808594 L 25.960938 24.382812 L 26.117188 24.191406 L 26.769531 23.730469 L 27.652344 23.308594 L 28.269531 23 L 29.230469 22.539062 L 29.847656 22.191406 L 30.460938 21.882812 L 30.730469 21.730469 L 31.078125 21.617188 L 31.152344 21.617188 L 31.117188 21.769531 L 30.921875 22.230469 L 30.882812 22.347656 L 30.882812 23.191406 L 30.921875 24.308594 L 31.039062 25.808594 L 31.117188 26.960938 L 31.269531 28.382812 L 31.269531 28.539062 L 31.347656 28.539062 L 31.347656 27.269531 L 31.421875 24.269531 L 31.5 23.039062 L 31.578125 22.539062 L 31.730469 22.078125 L 32.078125 21.617188 L 32.5 21.308594 L 32.808594 21.191406 L 33.039062 21.152344 L 33.5 21.152344 L 34.117188 21.308594 L 34.691406 21.5 L 34.691406 20.191406 L 34.652344 13.382812 L 34.617188 13.117188 L 34.269531 13.117188 L 33.808594 13.269531 L 33.230469 13.617188 L 32.539062 14.078125 L 31.921875 14.460938 L 31.347656 14.847656 L 30.769531 15.269531 L 30.382812 15.847656 L 30.269531 16.152344 L 30.230469 16.347656 L 30.230469 16.730469 L 30.382812 16.191406 L 30.730469 15.730469 L 30.921875 15.539062 L 31.308594 15.230469 L 32.152344 14.691406 L 32.808594 14.269531 L 33.539062 13.808594 L 33.847656 13.652344 L 34.078125 13.578125 L 34.269531 13.617188 L 34.347656 13.769531 L 34.308594 13.960938 L 33.847656 14.152344 L 33.230469 14.578125 L 32.460938 15.078125 L 32.039062 15.347656 L 31.539062 15.730469 L 31.269531 16.039062 L 31.078125 16.382812 L 31.039062 16.578125 L 30.960938 20.078125 L 30.921875 20.382812 L 30.652344 20.617188 L 30.191406 20.847656 L 29.578125 21.117188 L 29.460938 21.117188 L 29.421875 20.960938 L 29.382812 19 L 29.382812 16.691406 L 29.421875 16.117188 L 29.578125 15.617188 L 29.808594 15.230469 L 30.117188 14.847656 L 30.421875 14.578125 L 30.808594 14.347656 L 31.5 13.921875 L 32.039062 13.578125 L 32.691406 13.191406 L 33.617188 12.617188 L 34.152344 12.347656 L 34.578125 12.230469 Z M 22.882812 33.5 L 23.078125 33.539062 L 23.691406 33.882812 L 24.421875 34.230469 L 25.460938 34.652344 L 26.117188 34.882812 L 27.152344 35.191406 L 29.152344 35.691406 L 30.152344 35.882812 L 31.039062 36.039062 L 32.460938 36.308594 L 34.078125 36.539062 L 35.847656 36.730469 L 37.652344 36.882812 L 37.808594 36.921875 L 37.882812 37.230469 L 37.882812 37.921875 L 37.769531 38.382812 L 37.5 38.691406 L 37.191406 38.847656 L 36.382812 38.921875 L 35.847656 38.960938 L 35.769531 39.578125 L 35.617188 39.921875 L 35.382812 40.230469 L 35.078125 40.460938 L 34.808594 40.539062 L 34.191406 40.578125 L 33.539062 40.539062 L 33.152344 40.421875 L 32.847656 40.191406 L 32.539062 39.578125 L 32.5 38.921875 L 29.882812 38.921875 L 29.882812 39.5 L 29.808594 39.882812 L 29.617188 40.191406 L 29.308594 40.460938 L 28.921875 40.578125 L 28.5 40.578125 L 27.882812 40.539062 L 27.5 40.347656 L 27.230469 40 L 27.117188 39.652344 L 27.117188 38.960938 L 26.039062 38.882812 L 25.691406 38.808594 L 25.460938 38.652344 L 25.269531 38.421875 L 25.117188 38 L 25.078125 35.269531 L 24.960938 35.152344 L 24.191406 34.730469 L 23.617188 34.308594 L 23.230469 33.960938 L 22.921875 33.652344 Z M 22.882812 33.5 "/>
<path style=" stroke:none;fill-rule:nonzero;fill:rgb(10.196078%,47.45098%,41.176471%);fill-opacity:1;" d="M 22.191406 16.691406 L 22.347656 16.691406 L 22.269531 16.882812 L 21.808594 17.421875 L 21.421875 18 L 21.039062 18.617188 L 20.730469 19.117188 L 20.421875 19.730469 L 20.152344 20.421875 L 19.960938 21.078125 L 19.808594 21.847656 L 19.730469 22.421875 L 19.691406 22.921875 L 19.730469 24.078125 L 19.882812 25 L 20.078125 25.730469 L 20.382812 26.617188 L 20.769531 27.382812 L 21.617188 28.652344 L 21.960938 29.078125 L 22.652344 29.847656 L 23.078125 30.191406 L 23.460938 30.539062 L 23.960938 30.921875 L 24.730469 31.460938 L 25.421875 31.882812 L 26.460938 32.460938 L 27.691406 33.039062 L 28.769531 33.460938 L 30.117188 33.960938 L 31.691406 34.460938 L 33 34.808594 L 34.078125 35.078125 L 35.617188 35.421875 L 36.730469 35.652344 L 38.578125 35.960938 L 39.269531 36.117188 L 39.769531 36.230469 L 39.730469 36.308594 L 38.769531 36.382812 L 37.5 36.382812 L 35.691406 36.269531 L 33.847656 36.078125 L 31.960938 35.808594 L 30.460938 35.539062 L 29.230469 35.230469 L 28.078125 34.847656 L 26.730469 34.347656 L 25.960938 34 L 25.347656 33.691406 L 24.617188 33.308594 L 23.808594 32.808594 L 23.117188 32.347656 L 22.617188 31.921875 L 22.078125 31.460938 L 21.617188 31.039062 L 21.117188 30.539062 L 20.769531 30.117188 L 20.347656 29.617188 L 19.960938 29.039062 L 19.730469 28.652344 L 19.5 28.230469 L 19.152344 27.5 L 18.882812 26.769531 L 18.652344 25.847656 L 18.5 25 L 18.460938 24.652344 L 18.460938 23.578125 L 18.578125 22.578125 L 18.808594 21.539062 L 19.117188 20.617188 L 19.5 19.769531 L 19.921875 19.078125 L 20.269531 18.539062 L 20.691406 18.039062 L 21.117188 17.578125 L 21.382812 17.269531 L 21.808594 16.960938 Z M 28.460938 45.191406 L 29.808594 45.191406 L 30.421875 45.269531 L 30.960938 45.460938 L 31.5 45.730469 L 31.847656 46.039062 L 32.152344 46.617188 L 32.308594 47.039062 L 32.382812 47.460938 L 32.382812 48.347656 L 32.230469 49 L 32.078125 49.347656 L 31.882812 49.652344 L 31.617188 49.960938 L 31.230469 50.230469 L 30.617188 50.5 L 29.921875 50.652344 L 29.652344 50.691406 L 28.652344 50.691406 L 27.882812 50.539062 L 27.269531 50.269531 L 26.847656 49.960938 L 26.539062 49.617188 L 26.308594 49.039062 L 26.191406 48.539062 L 26.191406 47.230469 L 26.382812 46.578125 L 26.617188 46.152344 L 26.808594 45.921875 L 27.347656 45.539062 L 27.769531 45.347656 L 28.191406 45.230469 Z M 47.347656 45.269531 L 50.617188 45.269531 L 51.191406 45.382812 L 51.652344 45.578125 L 52.039062 45.882812 L 52.308594 46.347656 L 52.421875 46.730469 L 52.460938 47.230469 L 52.382812 47.730469 L 52.191406 48.191406 L 51.960938 48.5 L 51.578125 48.808594 L 51.460938 48.882812 L 51.539062 49.078125 L 52.039062 49.808594 L 52.460938 50.460938 L 52.460938 50.539062 L 52.117188 50.617188 L 51 50.617188 L 50.769531 50.460938 L 50.421875 50.039062 L 50.152344 49.617188 L 49.882812 49.152344 L 49.882812 49.078125 L 48.5 49.117188 L 48.5 50.539062 L 48.460938 50.578125 L 47.191406 50.578125 L 47.078125 50.539062 L 47.039062 50.421875 L 47.039062 45.578125 L 47.078125 45.347656 Z M 14.152344 45.269531 L 17.347656 45.269531 L 18 45.382812 L 18.539062 45.617188 L 18.921875 45.960938 L 19.152344 46.421875 L 19.269531 47 L 19.230469 47.617188 L 19.117188 48 L 18.882812 48.382812 L 18.730469 48.578125 L 18.308594 48.882812 L 18.382812 49.078125 L 18.921875 49.882812 L 19.191406 50.308594 L 19.230469 50.539062 L 19.152344 50.578125 L 18.730469 50.617188 L 18.308594 50.617188 L 17.882812 50.578125 L 17.617188 50.421875 L 17.269531 50 L 16.808594 49.308594 L 16.691406 49.117188 L 15.421875 49.117188 L 15.347656 50.347656 L 15.269531 50.578125 L 14 50.578125 L 13.882812 50.5 L 13.847656 49.152344 L 13.847656 45.730469 L 13.882812 45.382812 L 13.960938 45.308594 Z M 40.921875 45.269531 L 45.652344 45.269531 L 45.769531 45.347656 L 45.769531 45.882812 L 45.691406 46.539062 L 45.652344 46.578125 L 42.230469 46.652344 L 42.230469 47.269531 L 45.421875 47.308594 L 45.460938 47.347656 L 45.460938 48.460938 L 42.191406 48.5 L 42.230469 49.230469 L 42.539062 49.269531 L 45.078125 49.269531 L 45.691406 49.308594 L 45.730469 49.347656 L 45.730469 50.539062 L 45.539062 50.617188 L 42 50.617188 L 40.882812 50.578125 L 40.730469 50.5 L 40.691406 50.382812 L 40.652344 49.578125 L 40.652344 45.578125 L 40.730469 45.308594 Z M 30.847656 10.152344 L 31.578125 10.152344 L 32.5 10.347656 L 32.730469 10.460938 L 32.769531 10.769531 L 32.578125 11 L 32 11.382812 L 31.078125 11.882812 L 30.5 12.230469 L 29.578125 12.730469 L 29.230469 13 L 29.152344 13.152344 L 29.191406 13.421875 L 29.269531 13.539062 L 29.269531 13.730469 L 29.117188 13.921875 L 28.730469 14.078125 L 28.578125 14.421875 L 28.191406 15.191406 L 28.078125 15.308594 L 27.652344 15.308594 L 27.652344 14.847656 L 27.730469 13.808594 L 27.117188 14.117188 L 25.921875 14.730469 L 25.421875 15 L 24.269531 15.269531 L 23.882812 15.347656 L 23.652344 15.652344 L 23.230469 15.652344 L 23.117188 15.421875 L 22.691406 15.421875 L 22.117188 15.308594 L 22 15.191406 L 22 15.078125 L 22.421875 14.847656 L 22.421875 14.691406 L 22.230469 14.5 L 22.191406 14.347656 L 22.308594 14.191406 L 22.652344 14.191406 L 23.347656 14.421875 L 23.617188 14.460938 L 24.421875 13.921875 L 25.078125 13.5 L 25.5 13.230469 L 25.652344 13.152344 L 25.652344 13.039062 L 24.421875 12.769531 L 22.617188 12.382812 L 22.117188 12.269531 L 22.078125 12.152344 L 22.230469 11.960938 L 22.5 11.808594 L 23.421875 11.808594 L 25.460938 11.921875 L 25.691406 12 L 25.769531 12.078125 L 25.808594 12.382812 L 26 12.382812 L 26.191406 12.152344 L 26.578125 12.191406 L 26.578125 12.152344 L 26.347656 11.847656 L 26.347656 11.539062 L 26.5 11.308594 L 26.617188 11.230469 L 26.847656 11.230469 L 27 11.382812 L 27.152344 11.769531 L 27.152344 11.921875 L 27.269531 11.882812 L 27.460938 11.960938 L 28.652344 12.078125 L 28.652344 12.191406 L 28.921875 12.152344 L 29.921875 11.578125 L 30.5 11.191406 L 30.847656 11.039062 L 31.308594 10.769531 L 31.847656 10.652344 L 32.421875 10.617188 L 32.539062 10.5 L 32.269531 10.460938 L 31.230469 10.460938 L 31.230469 10.539062 L 30.921875 10.539062 L 30.921875 10.460938 L 30.5 10.539062 L 30.039062 10.730469 L 29.347656 11.117188 L 28.769531 11.460938 L 28.460938 11.617188 L 28.421875 11.730469 L 28.769531 11.652344 L 28.882812 11.578125 L 29.117188 11.539062 L 29.039062 11.691406 L 28.847656 11.769531 L 28.769531 11.921875 L 28.617188 11.882812 L 28.347656 11.847656 L 28.078125 11.847656 L 27.921875 11.769531 L 28.421875 11.382812 L 29.152344 10.921875 L 29.730469 10.578125 L 30.347656 10.269531 L 30.460938 10.191406 L 30.691406 10.230469 Z M 6.808594 45.269531 L 7.808594 45.269531 L 7.882812 45.347656 L 7.921875 45.539062 L 7.960938 48.382812 L 8.039062 48.730469 L 8.230469 49.039062 L 8.539062 49.230469 L 9 49.347656 L 9.382812 49.382812 L 10.191406 49.308594 L 10.652344 49.152344 L 10.847656 48.921875 L 11 48.539062 L 11.039062 45.652344 L 11.078125 45.347656 L 11.539062 45.269531 L 12.191406 45.269531 L 12.421875 45.421875 L 12.539062 45.652344 L 12.578125 45.847656 L 12.578125 48 L 12.539062 48.617188 L 12.421875 49.152344 L 12.191406 49.691406 L 12 49.882812 L 11.578125 50.230469 L 11.117188 50.460938 L 10.539062 50.617188 L 10.039062 50.691406 L 8.847656 50.691406 L 8.039062 50.539062 L 7.578125 50.347656 L 7.152344 50.078125 L 6.847656 49.769531 L 6.617188 49.382812 L 6.460938 48.882812 L 6.421875 48.539062 L 6.421875 45.769531 L 6.460938 45.382812 Z M 33.769531 45.269531 L 34.882812 45.269531 L 35.039062 45.308594 L 35.078125 45.382812 L 35.117188 47.152344 L 35.191406 47.308594 L 35.421875 47.269531 L 35.847656 46.960938 L 36.382812 46.5 L 36.691406 46.230469 L 37.191406 45.808594 L 37.691406 45.421875 L 37.921875 45.269531 L 39.308594 45.269531 L 39.578125 45.347656 L 39.539062 45.5 L 39.230469 45.769531 L 38.578125 46.269531 L 38.039062 46.691406 L 37.539062 47.117188 L 36.882812 47.730469 L 36.769531 47.847656 L 36.808594 48 L 37.191406 48.347656 L 37.5 48.617188 L 37.882812 48.921875 L 37.882812 49 L 38.039062 49.078125 L 38.539062 49.539062 L 38.960938 49.882812 L 39.539062 50.421875 L 39.617188 50.539062 L 39.578125 50.578125 L 38 50.578125 L 37.578125 50.347656 L 37 49.847656 L 36.539062 49.421875 L 36.117188 49.078125 L 35.578125 48.617188 L 35.382812 48.5 L 35.152344 48.460938 L 35.117188 48.578125 L 35.078125 50.191406 L 35 50.5 L 34.882812 50.578125 L 34.152344 50.578125 L 33.691406 50.539062 L 33.617188 50.421875 L 33.578125 45.617188 L 33.617188 45.347656 Z M 20.921875 45.269531 L 21.691406 45.269531 L 21.921875 45.347656 L 22.039062 45.691406 L 22.078125 49.269531 L 24.652344 49.269531 L 25.269531 49.308594 L 25.308594 49.460938 L 25.308594 50.191406 L 25.230469 50.539062 L 25.191406 50.578125 L 24.808594 50.617188 L 21.882812 50.617188 L 20.730469 50.578125 L 20.539062 50.539062 L 20.5 49.808594 L 20.5 46.421875 L 20.539062 45.5 L 20.617188 45.347656 Z M 20.921875 45.269531 "/>
<path style=" stroke:none;fill-rule:nonzero;fill:rgb(99.215686%,99.215686%,99.215686%);fill-opacity:1;" d="M 28.730469 46.5 L 29.847656 46.5 L 30.347656 46.652344 L 30.652344 46.921875 L 30.847656 47.230469 L 30.921875 47.652344 L 30.921875 48.191406 L 30.808594 48.730469 L 30.578125 49.078125 L 30.230469 49.308594 L 29.921875 49.382812 L 29.421875 49.421875 L 28.960938 49.421875 L 28.308594 49.269531 L 28 49.078125 L 27.847656 48.921875 L 27.691406 48.460938 L 27.652344 48.117188 L 27.652344 47.691406 L 27.730469 47.152344 L 27.921875 46.847656 L 28.269531 46.617188 Z M 29.921875 25.117188 L 30.117188 25.152344 L 30.269531 25.308594 L 30.230469 25.5 L 29.769531 25.921875 L 29.652344 26.152344 L 29.617188 26.769531 L 29.617188 32 L 29.539062 32.191406 L 29.269531 32.152344 L 29.191406 32.039062 L 29.191406 26.382812 L 29.269531 25.769531 L 29.460938 25.382812 L 29.652344 25.230469 Z M 15.5 46.578125 L 17.421875 46.578125 L 17.617188 46.652344 L 17.769531 46.847656 L 17.769531 47.421875 L 17.652344 47.617188 L 17.421875 47.769531 L 15.460938 47.769531 L 15.382812 47.730469 L 15.347656 47.230469 L 15.347656 46.769531 L 15.382812 46.617188 Z M 48.730469 46.578125 L 50.382812 46.578125 L 50.691406 46.652344 L 50.882812 46.847656 L 50.921875 46.921875 L 50.921875 47.382812 L 50.808594 47.617188 L 50.617188 47.730469 L 50.382812 47.769531 L 48.691406 47.769531 L 48.539062 47.691406 L 48.539062 46.617188 Z M 27.421875 26.191406 L 27.652344 26.230469 L 27.769531 26.347656 L 27.730469 26.617188 L 27.269531 27.039062 L 27.152344 27.347656 L 27.117188 30.847656 L 27 30.921875 L 26.769531 30.769531 L 26.691406 30.5 L 26.730469 26.921875 L 26.882812 26.617188 L 27.152344 26.347656 Z M 33.847656 38.921875 L 35.421875 38.921875 L 35.5 39.039062 L 35.5 39.308594 L 35.347656 39.730469 L 35.152344 39.960938 L 34.847656 40.117188 L 34.460938 40.117188 L 34.152344 39.960938 L 33.921875 39.691406 L 33.808594 39.308594 L 33.808594 39 Z M 25.847656 13.152344 L 26.152344 13.152344 L 26.152344 13.269531 L 26 13.460938 L 26.5 13.308594 L 26.578125 13.269531 L 26.808594 13.269531 L 26.808594 13.421875 L 26.152344 13.808594 L 25.460938 14.191406 L 24.847656 14.5 L 24.269531 14.769531 L 24 14.847656 L 23.808594 14.847656 L 23.808594 14.578125 L 23.921875 14.460938 L 24 14.460938 L 24 14.382812 L 24.5 14.039062 L 25.152344 13.617188 L 25.539062 13.347656 Z M 28.347656 38.921875 L 29.5 38.921875 L 29.578125 38.960938 L 29.617188 39.117188 L 29.617188 39.652344 L 29.460938 39.960938 L 29.269531 40.152344 L 29.039062 40.230469 L 28.730469 40.191406 L 28.5 40.039062 L 28.347656 39.808594 L 28.269531 39.578125 L 28.269531 39.039062 Z M 27.269531 23.769531 L 27.5 23.769531 L 27.421875 23.921875 L 27.117188 24.230469 L 26.691406 24.769531 L 26.347656 25.308594 L 25.882812 26.191406 L 25.652344 26.769531 L 25.578125 26.921875 L 25.5 26.921875 L 25.5 26.269531 L 25.652344 25.691406 L 25.921875 25.078125 L 26.230469 24.652344 L 26.652344 24.191406 L 27.078125 23.882812 Z M 26.808594 36.117188 L 27.039062 36.117188 L 27.117188 36.269531 L 27.117188 37.230469 L 27 37.347656 L 26.847656 37.308594 L 26.808594 37.269531 L 26.730469 36.769531 L 26.730469 36.191406 Z M 29.347656 36.769531 L 29.5 36.769531 L 29.539062 37.039062 L 29.382812 37.078125 L 29.308594 37 L 29.308594 36.808594 Z M 29.347656 36.769531 "/>
</g>
</svg>
