<?xml version="1.0" encoding="UTF-8"?>
<svg version="1.1" viewBox="0 0 1560 1184" width="1280" height="1280" xmlns="http://www.w3.org/2000/svg">
<path transform="translate(0)" d="m0 0h1560v1184h-1560z" fill="#FDFDFD"/>
<path transform="translate(907,129)" d="m0 0h10l15 2 8 5 3 9v243l6 2 18 10 5 4 6 8 4 8 2 6 1 29v274l-1 6-6 1-44-5-24-4-33-8-40-12-20-7-28-11-16-8-23-11-23-13-14-8-16-11-19-14-14-11-13-11-24-24-11-14-7-12v-2l5 2 11 9 13 10 7 6 7 3v-82l3-18 5-12 6-11 9-11 4-5 17-12 23-11 16-8 25-12 16-9 16-8 7-4 9-3h2l-1 4-5 12-1 3v22l1 29 3 39 2 30 4 37v4h2v-33l2-78 2-32 2-13 4-12 9-12 11-8 8-3 6-1h12l16 4 15 5v-34l-1-177-1-7h-9l-12 4-15 9-18 12-16 10-15 10-15 11-10 15-3 8-1 5v10l4-14 9-12 5-5 10-8 22-14 17-11 19-12 8-4 6-2 5 1 2 4-1 5-12 5-16 11-20 13-11 7-13 10-7 8-5 9-1 5-2 91-1 8-7 6-12 6-16 7h-3l-1-4-1-51v-60l1-15 4-13 6-10 8-10 8-7 10-6 18-11 14-9 17-10 24-15 14-7 11-3z" fill="#1A7969"/>
<path transform="translate(595,683)" d="m0 0 5 1 16 9 19 9 27 11 17 6 27 8 52 13 26 5 23 4 37 7 42 6 46 5 47 4 4 1 2 8v18l-3 12-7 8-8 4-21 2-14 1-2 16-4 9-6 8-8 6-7 2-16 1-17-1-10-3-8-6-8-16-1-17h-68v15l-2 10-5 8-8 7-10 3h-11l-16-1-10-5-7-9-3-9v-18l-28-2-9-2-6-4-5-6-4-11-1-71-3-3-20-11-15-11-10-9-8-8z" fill="#1A7969"/>
<path transform="translate(577,246)" d="m0 0h4l-2 5-12 14-10 15-10 16-8 13-8 16-7 18-5 17-4 20-2 15-1 13 1 30 4 24 5 19 8 23 10 20 22 33 9 11 18 20 11 9 10 9 13 10 20 14 18 11 27 15 32 15 28 11 35 13 41 13 34 9 28 7 40 9 29 6 48 8 18 4 13 3-1 2-25 2h-33l-47-3-48-5-49-7-39-7-32-8-30-10-35-13-20-9-16-8-19-10-21-13-18-12-13-11-14-12-12-11-13-13-9-11-11-13-10-15-6-10-6-11-9-19-7-19-6-24-4-22-1-9v-28l3-26 6-27 8-24 10-22 11-18 9-14 11-13 11-12 7-8 11-8z" fill="#1A7969"/>
<path transform="translate(740,987)" d="m0 0h35l16 2 14 5 14 7 9 8 8 15 4 11 2 11v23l-4 17-4 9-5 8-7 8-10 7-16 7-18 4-7 1h-26l-20-4-16-7-11-8-8-9-6-15-3-13v-34l5-17 6-11 5-6 14-10 11-5 11-3z" fill="#1A7969"/>
<path transform="translate(1231,989)" d="m0 0h85l15 3 12 5 10 8 7 12 3 10 1 13-2 13-5 12-6 8-10 8-3 2 2 5 13 19 11 17v2l-9 2h-29l-6-4-9-11-7-11-7-12v-2l-36 1v37l-1 1h-33l-3-1-1-3v-126l1-6z" fill="#1A7969"/>
<path transform="translate(368,989)" d="m0 0h83l17 3 14 6 10 9 6 12 3 15-1 16-3 10-6 10-4 5-11 8 2 5 14 21 7 11 1 6-2 1-11 1h-11l-11-1-7-4-9-11-12-18-3-5h-33l-2 32-2 6h-33l-3-2-1-35v-89l1-9 2-2z" fill="#1A7969"/>
<path transform="translate(1064,989)" d="m0 0h123l3 2v14l-2 17-1 1-89 2v16l83 1 1 1v29l-85 1 1 19 8 1h66l16 1 1 1v31l-5 2h-92l-29-1-4-2-1-3-1-21v-104l2-7z" fill="#1A7969"/>
<path transform="translate(802,76)" d="m0 0h19l24 5 6 3 1 8-5 6-15 10-24 13-15 9-24 13-9 7-2 4 1 7 2 3v5l-4 5-10 4-4 9-10 20-3 3h-11v-12l2-27-16 8-31 16-13 7-30 7-10 2-6 8h-11l-3-6h-11l-15-3-3-3v-3l11-6v-4l-5-5-1-4 3-4h9l18 6 7 1 21-14 17-11 11-7 4-2v-3l-32-7-47-10-13-3-1-3 4-5 7-4h24l53 3 6 2 2 2 1 8h5l5-6 10 1v-1l-6-8v-8l4-6 3-2h6l4 4 4 10v4l3-1 5 2 31 3v3l7-1 26-15 15-10 9-4 12-7 14-3 15-1 3-3-7-1h-27v2h-8v-2l-11 2-12 5-18 10-15 9-8 4-1 3 9-2 3-2 6-1-2 4-5 2-2 4-4-1-7-1h-7l-4-2 13-10 19-12 15-9 16-8 3-2 6 1z" fill="#1A7969"/>
<path transform="translate(177,989)" d="m0 0h26l2 2 1 5 1 74 2 9 5 8 8 5 12 3 10 1 21-2 12-4 5-6 4-10 1-75 1-8 12-2h17l6 4 3 6 1 5v56l-1 16-3 14-6 14-5 5-11 9-12 6-15 4-13 2h-31l-21-4-12-5-11-7-8-8-6-10-4-13-1-9v-72l1-10z" fill="#1A7969"/>
<path transform="translate(878,989)" d="m0 0h29l4 1 1 2 1 46 2 4 6-1 11-8 14-12 8-7 13-11 13-10 6-4h36l7 2-1 4-8 7-17 13-14 11-13 11-17 16-3 3 1 4 10 9 8 7 10 8v2l4 2 13 12 11 9 15 14 2 3-1 1h-41l-11-6-15-13-12-11-11-9-14-12-5-3-6-1-1 3-1 42-2 8-3 2h-19l-12-1-2-3-1-125 1-7z" fill="#1A7969"/>
<path transform="translate(544,989)" d="m0 0h20l6 2 3 9 1 93h67l16 1 1 4v19l-2 9-1 1-10 1h-76l-30-1-5-1-1-19v-88l1-24 2-4z" fill="#1A7969"/>
<path transform="translate(747,1021)" d="m0 0h29l13 4 8 7 5 8 2 11v14l-3 14-6 9-9 6-8 2-13 1h-12l-17-4-8-5-4-4-4-12-1-9v-11l2-14 5-8 9-6z" fill="#FDFDFD"/>
<path transform="translate(778,465)" d="m0 0 5 1 4 4-1 5-12 11-3 6-1 16v136l-2 5-7-1-2-3v-147l2-16 5-10 5-4z" fill="#FDFDFD"/>
<path transform="translate(403,1023)" d="m0 0h50l5 2 4 5v15l-3 5-6 4h-51l-2-1-1-13v-12l1-4z" fill="#FDFDFD"/>
<path transform="translate(1267,1023)" d="m0 0h43l8 2 5 5 1 2v12l-3 6-5 3-6 1h-44l-4-2v-28z" fill="#FDFDFD"/>
<path transform="translate(713,493)" d="m0 0 6 1 3 3-1 7-12 11-3 8-1 91-3 2-6-4-2-7 1-93 4-8 7-7z" fill="#FDFDFD"/>
<path transform="translate(880,824)" d="m0 0h41l2 3v7l-4 11-5 6-8 4h-10l-8-4-6-7-3-10v-8z" fill="#FDFDFD"/>
<path transform="translate(672,154)" d="m0 0h8v3l-4 5 13-4 2-1h6v4l-17 10-18 10-16 8-15 7-7 2h-5v-7l3-3h2v-2l13-9 17-11 10-7z" fill="#FDFDFD"/>
<path transform="translate(737,824)" d="m0 0h30l2 1 1 4v14l-4 8-5 5-6 2-8-1-6-4-4-6-2-6v-14z" fill="#FDFDFD"/>
<path transform="translate(709,430)" d="m0 0h6l-2 4-8 8-11 14-9 14-12 23-6 15-2 4h-2v-17l4-15 7-16 8-11 11-12 11-8z" fill="#FDFDFD"/>
<path transform="translate(697,751)" d="m0 0h6l2 4v25l-3 3-4-1-1-1-2-13v-15z" fill="#FDFDFD"/>
<path transform="translate(763,768)" d="m0 0h4l1 7-4 1-2-2v-5z" fill="#FDFDFD"/>
</svg>
